<svg width="258" height="258" viewBox="0 0 258 258" fill="none" xmlns="http://www.w3.org/2000/svg">
<g opacity="0.4" clip-path="url(#clip0_2234_9739)">
<path d="M129.089 0C57.7268 0 0 57.7268 0 129.089C0 200.273 57.7268 258.177 129.089 258.177C200.273 258.177 258.177 200.45 258.177 129.089C258 57.7268 200.273 0 129.089 0ZM129.089 249.855C62.3308 249.855 8.32258 195.846 8.32258 129.089C8.32258 62.3308 62.3308 8.32258 129.089 8.32258C195.846 8.32258 249.855 62.3308 249.855 129.089C249.855 195.669 195.669 249.855 129.089 249.855Z" fill="white"/>
<path d="M130.5 28C75.6095 28 31 73.282 31 129C31 184.718 75.6095 230 130.5 230C185.391 230 230 184.895 230 129.177C230 73.282 185.391 28 130.5 28ZM130.5 214.611C83.9737 214.611 46.1602 176.228 46.1602 129C46.1602 81.7723 83.9737 43.3888 130.5 43.3888C177.026 43.3888 214.84 81.7723 214.84 129C214.84 176.228 177.026 214.611 130.5 214.611Z" fill="white"/>
</g>
<defs>
<clipPath id="clip0_2234_9739">
<rect width="258" height="258" fill="white"/>
</clipPath>
</defs>
</svg>
