<svg width="216" height="225" viewBox="0 0 216 225" fill="none" xmlns="http://www.w3.org/2000/svg">
<g opacity="0.8" clip-path="url(#clip0_2234_9590)">
<path d="M80.0641 197.564C81.5362 197.571 82.6351 198.684 82.6281 200.161C82.6211 201.638 81.5117 202.741 80.0396 202.734C78.5675 202.727 77.4686 201.614 77.4756 200.137C77.4826 198.66 78.7147 197.558 80.0641 197.564Z" fill="#FFCF2D"/>
<path d="M80.1681 175.532C81.6402 175.539 82.7391 176.652 82.7321 178.129C82.7251 179.606 81.6157 180.709 80.1436 180.702C78.6715 180.695 77.5726 179.582 77.5796 178.105C77.5861 176.751 78.8187 175.526 80.1681 175.532Z" fill="#FFCF2D"/>
<path d="M80.2721 153.623C81.7443 153.63 82.8431 154.743 82.8361 156.22C82.8291 157.697 81.7197 158.799 80.2476 158.792C78.7755 158.786 77.6766 157.673 77.6836 156.195C77.6906 154.718 78.9227 153.617 80.2721 153.623Z" fill="#FFCF2D"/>
<path d="M80.3766 131.591C81.8487 131.598 82.9476 132.711 82.9406 134.188C82.9336 135.665 81.8242 136.767 80.3521 136.76C78.88 136.753 77.7811 135.64 77.7881 134.163C77.7951 132.686 79.0272 131.584 80.3766 131.591Z" fill="#FFCF2D"/>
<path d="M80.4811 109.558C81.9532 109.565 83.0521 110.678 83.0451 112.155C83.0381 113.632 81.9287 114.735 80.4566 114.728C78.9845 114.721 77.8856 113.608 77.8926 112.131C77.899 110.777 79.1316 109.552 80.4811 109.558Z" fill="#FFCF2D"/>
<path d="M80.5856 87.5262C82.0577 87.5332 83.1566 88.6462 83.1496 90.1232C83.1426 91.6003 82.0332 92.7028 80.5611 92.6958C79.089 92.6888 77.9901 91.5758 77.9971 90.0988C78.0041 88.6218 79.2361 87.5198 80.5856 87.5262Z" fill="#FFCF2D"/>
<path d="M80.6891 65.617C82.1612 65.624 83.2601 66.737 83.2531 68.214C83.2461 69.6911 82.1367 70.7936 80.6646 70.7866C79.1925 70.7796 78.0936 69.6666 78.1006 68.1896C78.1076 66.7126 79.3397 65.6106 80.6891 65.617Z" fill="#FFCF2D"/>
<path d="M80.7936 43.5848C82.2657 43.5918 83.3646 44.7048 83.3576 46.1818C83.3506 47.6588 82.2412 48.7614 80.7691 48.7544C79.297 48.7474 78.1981 47.6344 78.2051 46.1574C78.2121 44.6804 79.4441 43.5784 80.7936 43.5848Z" fill="#FFCF2D"/>
<path d="M80.8981 21.5526C82.3702 21.5596 83.4691 22.6726 83.4621 24.1496C83.4551 25.6266 82.3457 26.7292 80.8736 26.7222C79.4015 26.7152 78.3026 25.6022 78.3096 24.1252C78.316 22.7712 79.5486 21.5462 80.8981 21.5526Z" fill="#FFCF2D"/>
<path d="M98.3429 197.651C99.8151 197.658 100.914 198.771 100.907 200.248C100.9 201.725 99.7906 202.828 98.3184 202.821C96.8463 202.814 95.7474 201.701 95.7544 200.224C95.7614 198.747 96.8708 197.644 98.3429 197.651Z" fill="#FFCF2D"/>
<path d="M98.4469 175.618C99.9191 175.625 101.018 176.738 101.011 178.215C101.004 179.692 99.8946 180.795 98.4224 180.788C96.9503 180.781 95.8514 179.668 95.8584 178.191C95.8649 176.837 96.9748 175.611 98.4469 175.618Z" fill="#FFCF2D"/>
<path d="M98.5509 153.71C100.023 153.717 101.122 154.83 101.115 156.307C101.108 157.784 99.9986 158.886 98.5264 158.879C97.0543 158.872 95.9554 157.759 95.9624 156.282C95.9694 154.805 97.0788 153.703 98.5509 153.71Z" fill="#FFCF2D"/>
<path d="M98.6554 131.678C100.128 131.685 101.226 132.798 101.219 134.275C101.212 135.752 100.103 136.854 98.6309 136.847C97.1588 136.84 96.0599 135.727 96.0669 134.25C96.0739 132.773 97.1833 131.671 98.6554 131.678Z" fill="#FFCF2D"/>
<path d="M98.7599 109.644C100.232 109.651 101.331 110.764 101.324 112.241C101.317 113.718 100.208 114.821 98.7354 114.814C97.2633 114.807 96.1644 113.694 96.1714 112.217C96.1778 110.863 97.2878 109.637 98.7599 109.644Z" fill="#FFCF2D"/>
<path d="M98.8644 87.6122C100.337 87.6191 101.435 88.7321 101.428 90.2092C101.421 91.6862 100.312 92.7887 98.8399 92.7817C97.3678 92.7748 96.2689 91.6618 96.2759 90.1847C96.2829 88.7077 97.3923 87.6052 98.8644 87.6122Z" fill="#FFCF2D"/>
<path d="M98.9679 65.704C100.44 65.7109 101.539 66.8239 101.532 68.301C101.525 69.778 100.416 70.8805 98.9434 70.8735C97.4713 70.8666 96.3724 69.7536 96.3794 68.2765C96.3864 66.7995 97.4958 65.697 98.9679 65.704Z" fill="#FFCF2D"/>
<path d="M99.0724 43.6707C100.545 43.6777 101.643 44.7907 101.636 46.2678C101.629 47.7448 100.52 48.8473 99.0479 48.8403C97.5758 48.8334 96.4769 47.7204 96.4839 46.2433C96.4909 44.7663 97.6003 43.6638 99.0724 43.6707Z" fill="#FFCF2D"/>
<path d="M99.1769 21.6385C100.649 21.6455 101.748 22.7585 101.741 24.2355C101.734 25.7125 100.625 26.8151 99.1524 26.8081C97.6803 26.8011 96.5814 25.6881 96.5884 24.2111C96.5948 22.8572 97.7048 21.6316 99.1769 21.6385Z" fill="#FFCF2D"/>
<path d="M43.6286 197.391C45.1007 197.398 46.1995 198.511 46.1925 199.988C46.1855 201.465 45.0762 202.568 43.6041 202.561C42.1319 202.554 41.0331 201.441 41.0401 199.964C41.0471 198.487 42.1564 197.384 43.6286 197.391Z" fill="#FFCF2D"/>
<path d="M43.7331 175.359C45.2052 175.366 46.304 176.479 46.297 177.956C46.29 179.433 45.1807 180.536 43.7086 180.529C42.2364 180.522 41.1376 179.409 41.1446 177.932C41.151 176.578 42.2609 175.352 43.7331 175.359Z" fill="#FFCF2D"/>
<path d="M43.8371 153.45C45.3092 153.457 46.408 154.57 46.401 156.047C46.394 157.524 45.2847 158.627 43.8126 158.62C42.3404 158.613 41.2422 157.377 41.2486 156.023C41.2556 154.546 42.3649 153.443 43.8371 153.45Z" fill="#FFCF2D"/>
<path d="M43.9411 131.418C45.4132 131.425 46.512 132.538 46.505 134.015C46.498 135.492 45.3887 136.594 43.9166 136.587C42.4444 136.58 41.3462 135.344 41.3526 133.99C41.359 132.636 42.4689 131.411 43.9411 131.418Z" fill="#FFCF2D"/>
<path d="M44.0456 109.386C45.5177 109.393 46.6165 110.506 46.6095 111.983C46.6025 113.46 45.4932 114.562 44.0211 114.555C42.5489 114.548 41.4501 113.435 41.4571 111.958C41.4635 110.604 42.5734 109.379 44.0456 109.386Z" fill="#FFCF2D"/>
<path d="M44.1501 87.3534C45.6222 87.3603 46.721 88.4733 46.714 89.9504C46.707 91.4274 45.5977 92.5299 44.1255 92.523C42.6534 92.516 41.5546 91.403 41.5616 89.926C41.5686 88.4489 42.6779 87.3464 44.1501 87.3534Z" fill="#FFCF2D"/>
<path d="M44.2541 65.4442C45.7262 65.4512 46.825 66.5642 46.818 68.0412C46.811 69.5182 45.7017 70.6208 44.2296 70.6138C42.7574 70.6068 41.6586 69.4938 41.6656 68.0168C41.6726 66.5398 42.7819 65.4372 44.2541 65.4442Z" fill="#FFCF2D"/>
<path d="M44.3585 43.412C45.8307 43.4189 46.9295 44.5319 46.9225 46.009C46.9155 47.486 45.8062 48.5885 44.334 48.5815C42.8619 48.5746 41.7631 47.4616 41.7701 45.9845C41.7771 44.5075 42.8864 43.405 44.3585 43.412Z" fill="#FFCF2D"/>
<path d="M44.463 21.3798C45.9352 21.3867 47.034 22.4997 47.027 23.9767C47.02 25.4538 45.9107 26.5563 44.4385 26.5493C42.9664 26.5423 41.8676 25.4293 41.8746 23.9523C41.881 22.5984 42.9909 21.3728 44.463 21.3798Z" fill="#FFCF2D"/>
<path d="M61.9079 197.478C63.38 197.485 64.4788 198.598 64.4718 200.075C64.4648 201.552 63.2328 202.654 61.8834 202.648C60.4112 202.641 59.3124 201.528 59.3194 200.051C59.3264 198.574 60.4357 197.471 61.9079 197.478Z" fill="#FFCF2D"/>
<path d="M62.0119 175.446C63.484 175.453 64.5828 176.566 64.5758 178.043C64.5688 179.52 63.4595 180.623 61.9874 180.616C60.5152 180.609 59.4164 179.496 59.4234 178.019C59.4298 176.665 60.5397 175.439 62.0119 175.446Z" fill="#FFCF2D"/>
<path d="M62.1159 153.537C63.588 153.544 64.6869 154.657 64.6799 156.134C64.6729 157.611 63.5635 158.714 62.0914 158.707C60.6192 158.7 59.5204 157.587 59.5274 156.11C59.5344 154.633 60.6437 153.53 62.1159 153.537Z" fill="#FFCF2D"/>
<path d="M62.2204 131.505C63.6925 131.512 64.7913 132.625 64.7843 134.102C64.7773 135.579 63.668 136.681 62.1959 136.674C60.7237 136.667 59.6249 135.554 59.6319 134.077C59.6389 132.6 60.7482 131.498 62.2204 131.505Z" fill="#FFCF2D"/>
<path d="M62.3249 109.473C63.797 109.479 64.8958 110.592 64.8888 112.07C64.8818 113.547 63.7725 114.649 62.3004 114.642C60.8282 114.635 59.7294 113.522 59.7364 112.045C59.7428 110.691 60.8527 109.466 62.3249 109.473Z" fill="#FFCF2D"/>
<path d="M62.4293 87.4393C63.9015 87.4463 65.0003 88.5593 64.9933 90.0363C64.9863 91.5133 63.877 92.6159 62.4048 92.6089C60.9327 92.6019 59.8339 91.4889 59.8409 90.0119C59.8479 88.5349 60.9572 87.4323 62.4293 87.4393Z" fill="#FFCF2D"/>
<path d="M62.5329 65.5311C64.005 65.5381 65.1038 66.6511 65.0968 68.1281C65.0898 69.6051 63.9805 70.7077 62.5084 70.7007C61.0362 70.6937 59.9374 69.5807 59.9444 68.1037C59.9514 66.6267 61.0607 65.5241 62.5329 65.5311Z" fill="#FFCF2D"/>
<path d="M62.6374 43.4989C64.1095 43.5059 65.2083 44.6189 65.2013 46.0959C65.1943 47.5729 64.085 48.6754 62.6129 48.6685C61.1407 48.6615 60.0419 47.5485 60.0489 46.0715C60.0559 44.5944 61.1652 43.4919 62.6374 43.4989Z" fill="#FFCF2D"/>
<path d="M62.7418 21.4657C64.214 21.4727 65.3128 22.5857 65.3058 24.0627C65.2988 25.5397 64.1895 26.6422 62.7173 26.6353C61.2452 26.6283 60.1464 25.5153 60.1534 24.0383C60.1598 22.6843 61.2697 21.4587 62.7418 21.4657Z" fill="#FFCF2D"/>
<path d="M116.499 197.737C117.971 197.744 119.07 198.857 119.063 200.334C119.056 201.811 117.947 202.914 116.475 202.907C115.003 202.9 113.904 201.787 113.911 200.31C113.918 198.833 115.15 197.731 116.499 197.737Z" fill="#FFCF2D"/>
<path d="M116.604 175.705C118.076 175.712 119.175 176.825 119.168 178.302C119.161 179.779 118.051 180.881 116.579 180.875C115.107 180.868 114.008 179.755 114.015 178.278C114.022 176.924 115.254 175.699 116.604 175.705Z" fill="#FFCF2D"/>
<path d="M116.708 153.796C118.18 153.803 119.279 154.916 119.272 156.393C119.265 157.87 118.155 158.972 116.683 158.965C115.211 158.958 114.112 157.845 114.119 156.368C114.126 154.891 115.358 153.789 116.708 153.796Z" fill="#FFCF2D"/>
<path d="M116.812 131.764C118.284 131.77 119.383 132.883 119.376 134.361C119.369 135.838 118.26 136.94 116.788 136.933C115.316 136.926 114.217 135.813 114.224 134.336C114.231 132.859 115.463 131.757 116.812 131.764Z" fill="#FFCF2D"/>
<path d="M116.916 109.731C118.388 109.738 119.487 110.851 119.48 112.328C119.473 113.805 118.364 114.908 116.892 114.901C115.42 114.894 114.321 113.781 114.328 112.304C114.334 110.95 115.567 109.725 116.916 109.731Z" fill="#FFCF2D"/>
<path d="M117.021 87.6981C118.493 87.7051 119.592 88.8181 119.585 90.2951C119.578 91.7721 118.468 92.8747 116.996 92.8677C115.524 92.8607 114.425 91.7477 114.432 90.2707C114.439 88.7937 115.671 87.6917 117.021 87.6981Z" fill="#FFCF2D"/>
<path d="M117.125 65.7899C118.597 65.7969 119.696 66.9099 119.689 68.3869C119.682 69.8639 118.572 70.9665 117.1 70.9595C115.628 70.9525 114.529 69.8395 114.536 68.3625C114.543 66.8854 115.775 65.7835 117.125 65.7899Z" fill="#FFCF2D"/>
<path d="M117.229 43.7577C118.701 43.7646 119.8 44.8776 119.793 46.3547C119.786 47.8317 118.677 48.9342 117.205 48.9273C115.733 48.9203 114.634 47.8073 114.641 46.3302C114.648 44.8532 115.88 43.7513 117.229 43.7577Z" fill="#FFCF2D"/>
<path d="M117.334 21.7245C118.806 21.7315 119.905 22.8444 119.898 24.3215C119.891 25.7985 118.781 26.901 117.309 26.894C115.837 26.8871 114.738 25.7741 114.745 24.297C114.752 22.9431 115.984 21.7181 117.334 21.7245Z" fill="#FFCF2D"/>
<path d="M134.778 197.823C136.25 197.83 137.349 198.943 137.342 200.42C137.335 201.897 136.226 203 134.753 202.993C133.281 202.986 132.182 201.873 132.189 200.396C132.196 198.919 133.306 197.816 134.778 197.823Z" fill="#FFCF2D"/>
<path d="M134.882 175.791C136.355 175.798 137.453 176.911 137.446 178.388C137.439 179.865 136.33 180.967 134.858 180.96C133.386 180.953 132.287 179.84 132.294 178.363C132.3 177.01 133.41 175.784 134.882 175.791Z" fill="#FFCF2D"/>
<path d="M134.986 153.883C136.459 153.89 137.557 155.003 137.55 156.48C137.543 157.957 136.434 159.059 134.962 159.052C133.49 159.045 132.391 157.932 132.398 156.455C132.405 154.978 133.514 153.876 134.986 153.883Z" fill="#FFCF2D"/>
<path d="M137.655 134.446C137.662 133.019 136.514 131.856 135.091 131.849C133.668 131.843 132.509 132.995 132.502 134.422C132.496 135.85 133.644 137.012 135.066 137.019C136.489 137.026 137.648 135.874 137.655 134.446Z" fill="#FFCF2D"/>
<path d="M135.195 109.817C136.668 109.824 137.766 110.937 137.759 112.414C137.752 113.891 136.643 114.994 135.171 114.987C133.699 114.98 132.6 113.867 132.607 112.39C132.613 111.036 133.723 109.81 135.195 109.817Z" fill="#FFCF2D"/>
<path d="M135.299 87.785C136.772 87.792 137.87 88.905 137.863 90.382C137.856 91.859 136.747 92.9616 135.275 92.9546C133.803 92.9476 132.704 91.8346 132.711 90.3576C132.718 88.8806 133.827 87.778 135.299 87.785Z" fill="#FFCF2D"/>
<path d="M135.403 65.8758C136.876 65.8828 137.974 66.9958 137.967 68.4728C137.96 69.9499 136.851 71.0524 135.379 71.0454C133.907 71.0384 132.808 69.9254 132.815 68.4484C132.822 66.9714 133.931 65.8688 135.403 65.8758Z" fill="#FFCF2D"/>
<path d="M138.072 46.4406C138.079 45.0131 136.931 43.8503 135.508 43.8436C134.085 43.8369 132.926 44.9886 132.919 46.4162C132.913 47.8437 134.061 49.0064 135.483 49.0132C136.906 49.0199 138.065 47.8682 138.072 46.4406Z" fill="#FFCF2D"/>
<path d="M135.612 21.8114C137.085 21.8184 138.183 22.9314 138.176 24.4084C138.169 25.8854 137.06 26.9879 135.588 26.981C134.116 26.974 133.017 25.861 133.024 24.384C133.03 23.03 134.14 21.8044 135.612 21.8114Z" fill="#FFCF2D"/>
<path d="M153.057 197.91C154.529 197.917 155.628 199.03 155.621 200.507C155.614 201.984 154.505 203.087 153.033 203.08C151.561 203.073 150.462 201.96 150.469 200.483C150.476 199.006 151.585 197.903 153.057 197.91Z" fill="#FFCF2D"/>
<path d="M153.162 175.878C154.634 175.885 155.733 176.998 155.726 178.475C155.719 179.952 154.609 181.054 153.137 181.047C151.665 181.04 150.566 179.927 150.573 178.45C150.58 177.096 151.69 175.871 153.162 175.878Z" fill="#FFCF2D"/>
<path d="M153.265 153.969C154.737 153.976 155.836 155.089 155.829 156.566C155.822 158.043 154.713 159.145 153.241 159.138C151.769 159.131 150.67 158.018 150.677 156.541C150.684 155.064 151.793 153.962 153.265 153.969Z" fill="#FFCF2D"/>
<path d="M153.37 131.936C154.842 131.943 155.941 133.056 155.934 134.533C155.927 136.01 154.817 137.113 153.345 137.106C151.873 137.099 150.774 135.986 150.781 134.509C150.788 133.032 151.898 131.929 153.37 131.936Z" fill="#FFCF2D"/>
<path d="M153.474 109.904C154.946 109.911 156.045 111.024 156.038 112.501C156.031 113.978 154.922 115.081 153.45 115.074C151.978 115.067 150.879 113.954 150.886 112.477C150.892 111.123 152.002 109.897 153.474 109.904Z" fill="#FFCF2D"/>
<path d="M153.579 87.8719C155.051 87.8789 156.15 88.9919 156.143 90.4689C156.136 91.946 155.026 93.0485 153.554 93.0415C152.082 93.0345 150.983 91.9215 150.99 90.4445C150.997 88.9675 152.107 87.865 153.579 87.8719Z" fill="#FFCF2D"/>
<path d="M153.683 65.9628C155.155 65.9697 156.254 67.0827 156.247 68.5597C156.24 70.0368 155.13 71.1393 153.658 71.1323C152.186 71.1254 151.087 70.0123 151.094 68.5353C151.101 67.0583 152.211 65.9558 153.683 65.9628Z" fill="#FFCF2D"/>
<path d="M153.787 43.9305C155.259 43.9375 156.358 45.0505 156.351 46.5275C156.344 48.0045 155.234 49.1071 153.762 49.1001C152.29 49.0931 151.191 47.9801 151.198 46.5031C151.205 45.0261 152.315 43.9235 153.787 43.9305Z" fill="#FFCF2D"/>
<path d="M153.891 21.8983C155.363 21.9053 156.462 23.0183 156.455 24.4953C156.448 25.9723 155.339 27.0749 153.867 27.0679C152.395 27.0609 151.296 25.9479 151.303 24.4709C151.309 23.1169 152.419 21.8913 153.891 21.8983Z" fill="#FFCF2D"/>
<path d="M171.214 197.996C172.686 198.003 173.785 199.116 173.778 200.593C173.771 202.07 172.661 203.173 171.189 203.166C169.717 203.159 168.618 202.046 168.625 200.569C168.632 199.092 169.864 197.99 171.214 197.996Z" fill="#FFCF2D"/>
<path d="M171.318 175.964C172.79 175.971 173.889 177.084 173.882 178.561C173.875 180.038 172.766 181.14 171.294 181.133C169.821 181.126 168.723 180.013 168.73 178.536C168.736 177.182 169.969 175.957 171.318 175.964Z" fill="#FFCF2D"/>
<path d="M171.422 154.055C172.894 154.062 173.993 155.175 173.986 156.652C173.979 158.129 172.869 159.231 171.397 159.224C169.925 159.217 168.826 158.104 168.833 156.627C168.84 155.15 170.072 154.048 171.422 154.055Z" fill="#FFCF2D"/>
<path d="M171.526 132.022C172.998 132.029 174.097 133.142 174.09 134.619C174.083 136.096 172.974 137.199 171.502 137.192C170.029 137.185 168.931 136.072 168.938 134.595C168.945 133.118 170.177 132.016 171.526 132.022Z" fill="#FFCF2D"/>
<path d="M171.631 109.99C173.103 109.997 174.201 111.11 174.194 112.587C174.187 114.064 173.078 115.167 171.606 115.16C170.134 115.153 169.035 114.04 169.042 112.563C169.048 111.209 170.281 109.984 171.631 109.99Z" fill="#FFCF2D"/>
<path d="M171.735 87.9579C173.207 87.9648 174.306 89.0778 174.299 90.5549C174.292 92.0319 173.183 93.1344 171.711 93.1274C170.238 93.1205 169.14 92.0075 169.147 90.5304C169.154 89.0534 170.386 87.9515 171.735 87.9579Z" fill="#FFCF2D"/>
<path d="M171.839 66.0487C173.311 66.0557 174.41 67.1687 174.403 68.6457C174.396 70.1227 173.287 71.2252 171.815 71.2183C170.342 71.2113 169.244 70.0983 169.251 68.6213C169.258 67.1442 170.49 66.0423 171.839 66.0487Z" fill="#FFCF2D"/>
<path d="M171.943 44.0165C173.415 44.0234 174.514 45.1364 174.507 46.6135C174.5 48.0905 173.391 49.193 171.919 49.186C170.446 49.1791 169.348 48.0661 169.355 46.589C169.362 45.112 170.594 44.0101 171.943 44.0165Z" fill="#FFCF2D"/>
<path d="M172.048 21.9842C173.52 21.9912 174.618 23.1042 174.611 24.5812C174.604 26.0583 173.495 27.1608 172.023 27.1538C170.551 27.1468 169.452 26.0338 169.459 24.5568C169.465 23.2029 170.698 21.9778 172.048 21.9842Z" fill="#FFCF2D"/>
</g>
<defs>
<clipPath id="clip0_2234_9590">
<rect width="181.184" height="132.739" fill="white" transform="translate(0 143.662) rotate(-52.4584)"/>
</clipPath>
</defs>
</svg>
